<?xml version="1.0" encoding="utf-8"?>
<!-- Generator: Adobe Illustrator 27.8.1, SVG Export Plug-In . SVG Version: 6.00 Build 0)  -->
<!DOCTYPE svg PUBLIC "-//W3C//DTD SVG 1.1//EN" "http://www.w3.org/Graphics/SVG/1.1/DTD/svg11.dtd" [
	<!ENTITY ns_extend "http://ns.adobe.com/Extensibility/1.0/">
	<!ENTITY ns_ai "http://ns.adobe.com/AdobeIllustrator/10.0/">
	<!ENTITY ns_graphs "http://ns.adobe.com/Graphs/1.0/">
	<!ENTITY ns_vars "http://ns.adobe.com/Variables/1.0/">
	<!ENTITY ns_imrep "http://ns.adobe.com/ImageReplacement/1.0/">
	<!ENTITY ns_sfw "http://ns.adobe.com/SaveForWeb/1.0/">
	<!ENTITY ns_custom "http://ns.adobe.com/GenericCustomNamespace/1.0/">
	<!ENTITY ns_adobe_xpath "http://ns.adobe.com/XPath/1.0/">
]>
<svg version="1.1" id="Layer_1" xmlns:x="&ns_extend;" xmlns:i="&ns_ai;" xmlns:graph="&ns_graphs;"
	 xmlns="http://www.w3.org/2000/svg" xmlns:xlink="http://www.w3.org/1999/xlink" x="0px" y="0px" width="250px" height="60.36px"
	 viewBox="0 0 250 60.36" style="enable-background:new 0 0 250 60.36;" xml:space="preserve">
<style type="text/css">
	.st0{fill:#3473BA;}
	.st1{fill:#FFFFFF;}
	.st2{fill:#002838;}
</style>
<metadata>
	<sfw  xmlns="&ns_sfw;">
		<slices></slices>
		<sliceSourceBounds  bottomLeftOrigin="true" height="60.36" width="250" x="181.5" y="-426.68"></sliceSourceBounds>
	</sfw>
</metadata>
<g>
	<g>
		<path class="st0" d="M48.758,60.36H11.602C5.194,60.36,0,55.165,0,48.758V11.602C0,5.194,5.194,0,11.602,0h37.156
			C55.165,0,60.36,5.194,60.36,11.602v37.156C60.36,55.165,55.165,60.36,48.758,60.36z"/>
		<g>
			<path class="st1" d="M55.241,23.779c-0.096,4.516-2.039,8.082-5.72,10.699c-0.344,0.245-0.61,0.337-0.872-0.127
				c-0.925-1.64-1.874-3.266-2.866-4.986c1.798-1.154,2.786-2.746,3.139-4.757c0.621-3.55-2.144-7.185-5.728-7.487
				c-0.528-0.043-1.057-0.053-1.587-0.054H16.623c-0.026,0.009-0.056,0.014-0.084,0.014c-2.403,0.011-4.806,0-7.21-0.029
				c-0.225-0.003-0.555-0.107-0.655-0.273c-1.15-1.921-2.265-3.863-3.437-5.882c0.29-0.014,0.462-0.031,0.635-0.031
				c4.42,0,8.84,0.002,13.259,0.002c8.055,0,16.111-0.003,24.164,0c3.761,0.002,6.679,1.756,9.013,4.54
				C54.318,17.806,55.308,20.642,55.241,23.779z"/>
			<path class="st1" d="M42.368,49.498c-4.983-8.637-9.88-17.124-14.86-25.753c1.275,0,2.4,0,3.524,0c1.034,0,2.07-0.041,3.1,0.024
				c0.315,0.02,0.744,0.254,0.898,0.519c2.931,5.017,5.829,10.054,8.734,15.086c0.658,1.14,1.33,2.272,1.959,3.427
				c0.115,0.21,0.164,0.578,0.058,0.768C44.698,45.503,43.575,47.415,42.368,49.498z"/>
			<path class="st1" d="M27.407,49.427c-0.867-1.498-1.69-2.92-2.512-4.342c-0.827-1.43-1.73-2.823-2.456-4.303
				c-0.706-1.437-1.683-2.698-2.426-4.108c-0.758-1.438-1.611-2.826-2.423-4.235c-0.825-1.432-1.653-2.862-2.478-4.294
				c-0.82-1.422-1.638-2.844-2.53-4.393c2.403,0,4.643-0.019,6.882,0.027c0.238,0.005,0.541,0.347,0.692,0.605
				c1.581,2.694,3.139,5.402,4.701,8.107c1.897,3.284,3.776,6.58,5.703,9.846c0.376,0.636,0.407,1.126,0.017,1.76
				c-0.972,1.584-1.878,3.209-2.814,4.815C27.677,49.061,27.568,49.196,27.407,49.427z"/>
		</g>
	</g>
	<g>
		<path class="st2" d="M95.015,45.986H78.258V41.89l3.628-0.702V16.73l-3.628-0.702v-4.119H93.4c4.01,0,7.138,0.781,9.385,2.34
			c2.247,1.561,3.37,3.893,3.37,6.998c0,1.576-0.418,2.984-1.252,4.225c-0.835,1.24-2.048,2.173-3.639,2.797
			c1.388,0.313,2.528,0.835,3.417,1.568c0.92,0.749,1.603,1.658,2.048,2.727c0.445,1.069,0.667,2.235,0.667,3.499
			c0,3.261-1.077,5.73-3.23,7.408C102.013,45.148,98.963,45.986,95.015,45.986z M93.4,17.175h-4.681v9.011h4.915
			c1.826,0,3.23-0.374,4.213-1.123c0.983-0.749,1.474-1.841,1.474-3.277C99.322,18.712,97.348,17.175,93.4,17.175z M95.53,30.913
			h-6.811v9.83h6.296c3.713,0,5.57-1.56,5.57-4.681c0-1.092-0.18-2.036-0.538-2.832C99.314,31.686,97.808,30.913,95.53,30.913z"/>
		<path class="st2" d="M120.62,46.477c-2.668,0-4.763-0.846-6.284-2.539c-1.521-1.693-2.282-4.326-2.282-7.899V25.484l-2.785-0.702
			v-4.119h9.619v15.424c0,1.81,0.316,3.109,0.948,3.897c0.632,0.788,1.587,1.182,2.867,1.182c2.028,0,3.565-0.764,4.611-2.294
			V25.484l-3.019-0.702v-4.119h9.853v20.526l3.043,0.702v4.096h-9.034l-0.468-3.206c-0.796,1.186-1.795,2.099-2.996,2.738
			C123.491,46.157,122.133,46.477,120.62,46.477z"/>
		<path class="st2" d="M146.739,56.214c-1.233,0-2.489-0.187-3.768-0.562l0.772-5.009c0.624,0.125,1.264,0.187,1.919,0.187
			c2.075,0,3.448-0.999,4.119-2.996l0.562-1.568l-8.472-21.041l-3.113-0.445v-4.119h13.434v4.119l-3.089,0.468l4.47,12.545h0.14
			l4.704-12.592l-3.019-0.421v-4.119h12.521v4.119l-2.855,0.398l-9.666,24.575c-0.484,1.186-1.077,2.262-1.779,3.23
			c-0.718,0.967-1.638,1.747-2.762,2.34C149.735,55.917,148.362,56.214,146.739,56.214z"/>
		<path class="st2" d="M193.267,26.162l-6.53,19.824h-6.226l-7.911-29.607l-3.487-0.351v-4.119h13.715v4.119l-3.675,0.538
			l4.002,16.57l0.726,3.043h0.14l0.866-3.043l6.74-21.228h5.032l6.998,21.813l0.819,2.692h0.14l0.702-2.692l4.143-17.156
			l-3.885-0.538v-4.119h13.458v4.119l-3.253,0.351l-8.004,29.607h-6.179l-6.46-19.917l-0.819-2.809h-0.14L193.267,26.162z"/>
		<path class="st2" d="M235.279,41.89v4.096h-14.113V41.89l3.628-0.702V16.73l-3.628-0.702v-4.119h16.219
			c2.621,0,4.868,0.453,6.74,1.357c1.888,0.905,3.339,2.177,4.353,3.815c1.014,1.638,1.521,3.542,1.521,5.711
			c0,2.169-0.507,4.065-1.521,5.687c-1.014,1.638-2.465,2.906-4.353,3.803c-1.888,0.898-4.135,1.346-6.74,1.346h-5.758v7.56
			L235.279,41.89z M237.385,17.175h-5.758v11.187h5.758c1.903,0,3.343-0.518,4.318-1.556c0.975-1.037,1.463-2.36,1.463-3.967
			c0-1.638-0.488-2.992-1.463-4.061C240.728,17.71,239.288,17.175,237.385,17.175z"/>
	</g>
</g>
</svg>
